<svg width="49" height="48" viewBox="0 0 49 48" fill="none" xmlns="http://www.w3.org/2000/svg">
<rect x="0.333313" width="48" height="48" rx="12" fill="#F1F2F9"/>
<path d="M37.8577 27.5374L27.8846 37.5105C27.6262 37.7691 27.3194 37.9743 26.9817 38.1143C26.644 38.2543 26.282 38.3264 25.9164 38.3264C25.5508 38.3264 25.1888 38.2543 24.8511 38.1143C24.5134 37.9743 24.2066 37.7691 23.9482 37.5105L12.5866 26.1621C12.211 25.7869 12 25.2779 12 24.747V13.6667C12 12.5621 12.8954 11.6667 14 11.6667H25.081C25.6114 11.6667 26.1202 11.8774 26.4952 12.2524L37.8577 23.6149C38.3758 24.1361 38.6666 24.8412 38.6666 25.5761C38.6666 26.3111 38.3758 27.0161 37.8577 27.5374Z" fill="#CDD2EB" stroke="#CDD2EB" stroke-width="1.5" stroke-linecap="round" stroke-linejoin="round"/>
<path d="M20 19.6667H20.0133" stroke="#425DC7" stroke-width="4" stroke-linecap="round" stroke-linejoin="round"/>
</svg>
